<mxfile host="app.diagrams.net" agent="Mozilla/5.0 (Windows NT 10.0; Win64; x64) AppleWebKit/537.36 (KHTML, like Gecko) Chrome/126.0.0.0 YaBrowser/24.7.0.0 Safari/537.36" version="24.7.17">
  <diagram name="Страница — 1" id="UL0tbHItZ04XRDtK46yx">
    <mxGraphModel dx="647" dy="436" grid="0" gridSize="10" guides="1" tooltips="1" connect="1" arrows="1" fold="1" page="1" pageScale="1" pageWidth="827" pageHeight="1169" math="0" shadow="0">
      <root>
        <mxCell id="0" />
        <mxCell id="1" parent="0" />
        <mxCell id="r3LtN5hbJbslujDt12Ie-1" value="&lt;font style=&quot;font-size: 13px;&quot;&gt;Student&lt;/font&gt;" style="swimlane;fontStyle=1;align=center;verticalAlign=top;childLayout=stackLayout;horizontal=1;startSize=26;horizontalStack=0;resizeParent=1;resizeParentMax=0;resizeLast=0;collapsible=1;marginBottom=0;whiteSpace=wrap;html=1;" parent="1" vertex="1">
          <mxGeometry x="120" y="320" width="220" height="370" as="geometry" />
        </mxCell>
        <mxCell id="r3LtN5hbJbslujDt12Ie-2" value="- surname&lt;div&gt;- name&amp;nbsp;&lt;/div&gt;&lt;div&gt;-&amp;nbsp;patronymic&lt;/div&gt;&lt;div&gt;- id&lt;br&gt;&lt;/div&gt;&lt;div&gt;- phone&lt;/div&gt;&lt;div&gt;- telegram&lt;/div&gt;&lt;div&gt;- email&lt;/div&gt;&lt;div&gt;- git&lt;/div&gt;&lt;div&gt;&lt;br&gt;&lt;/div&gt;" style="text;strokeColor=none;fillColor=none;align=left;verticalAlign=top;spacingLeft=4;spacingRight=4;overflow=hidden;rotatable=0;points=[[0,0.5],[1,0.5]];portConstraint=eastwest;whiteSpace=wrap;html=1;" parent="r3LtN5hbJbslujDt12Ie-1" vertex="1">
          <mxGeometry y="26" width="220" height="124" as="geometry" />
        </mxCell>
        <mxCell id="r3LtN5hbJbslujDt12Ie-3" value="" style="line;strokeWidth=1;fillColor=none;align=left;verticalAlign=middle;spacingTop=-1;spacingLeft=3;spacingRight=3;rotatable=0;labelPosition=right;points=[];portConstraint=eastwest;strokeColor=inherit;" parent="r3LtN5hbJbslujDt12Ie-1" vertex="1">
          <mxGeometry y="150" width="220" height="8" as="geometry" />
        </mxCell>
        <mxCell id="r3LtN5hbJbslujDt12Ie-4" value="+&amp;nbsp;initialize&lt;div&gt;+ set_contacts(contacts)&lt;br&gt;+&amp;nbsp;self.phone_regular(phone)&lt;br&gt;+&amp;nbsp;self.telegram_regular(telegram)&lt;br&gt;+ self.email_regular(email)&lt;/div&gt;&lt;div&gt;+ self.git_regular(git)&lt;br&gt;+&amp;nbsp;check_git?&lt;br&gt;+&amp;nbsp;check_contact?&lt;/div&gt;&lt;div&gt;+ validate()&lt;br&gt;+&amp;nbsp;show_info()&lt;/div&gt;&lt;div&gt;- phone=(phone)&lt;br&gt;- email=(email)&lt;br&gt;- telegram=(telegram)&lt;br&gt;- git=(git)&lt;br&gt;&lt;br&gt;&lt;br&gt;&lt;/div&gt;" style="text;strokeColor=none;fillColor=none;align=left;verticalAlign=top;spacingLeft=4;spacingRight=4;overflow=hidden;rotatable=0;points=[[0,0.5],[1,0.5]];portConstraint=eastwest;whiteSpace=wrap;html=1;" parent="r3LtN5hbJbslujDt12Ie-1" vertex="1">
          <mxGeometry y="158" width="220" height="212" as="geometry" />
        </mxCell>
      </root>
    </mxGraphModel>
  </diagram>
</mxfile>
